<svg xmlns="http://www.w3.org/2000/svg" width="80.118" height="60.905" viewBox="0 0 80.118 60.905">
  <g id="フリックのハンド付きのスマホアイコン素材" transform="translate(0 -61.391)">
    <path id="パス_14" data-name="パス 14" d="M32.712,112.829H2.729V68.865H32.712V86.428l2.726,1.367V65.76a4.381,4.381,0,0,0-4.367-4.369H4.367A4.378,4.378,0,0,0,0,65.76v52.166A4.379,4.379,0,0,0,4.367,122.3h26.7a4.383,4.383,0,0,0,4.367-4.369V102.019c-.919-.46-1.839-.919-2.726-1.367v12.176Zm-14.993,5.352a1.311,1.311,0,1,1,1.313-1.311A1.31,1.31,0,0,1,17.719,118.181Z" fill="#fff"/>
    <path id="パス_15" data-name="パス 15" d="M194.422,176.5,179.2,168.862a5.2,5.2,0,0,0-6.968,2.31,5,5,0,0,0-.46,1.408c-.1,0-.191-.015-.284-.015a5.186,5.186,0,0,0-4.643,2.861,5.049,5.049,0,0,0-.54,2.242,4.2,4.2,0,0,0-1.45.814,6.734,6.734,0,0,0-1.577,2.112,4.12,4.12,0,0,0-.357,1.12l-10-5.017a5.194,5.194,0,0,0-6.973,2.311v0a5.2,5.2,0,0,0,2.318,6.968l19.034,9.55,3.763,1.888,0,0a4.343,4.343,0,0,1,.582.347l-6.795,1.626a5.694,5.694,0,0,0-4.367,5.531,5.62,5.62,0,0,0,.159,1.325,5.68,5.68,0,0,0,6.851,4.213h0l14.413-3.447c3.012-.658,4.885-1.284,7.423-2.017A28.006,28.006,0,0,0,196,202.378a13.122,13.122,0,0,0,5.164-5.575,15.116,15.116,0,0,0-6.739-20.3Zm3.824,18.839a9.838,9.838,0,0,1-3.922,4.235,25.006,25.006,0,0,1-5.9,2.281c-2.624.758-4.364,1.342-7.23,1.966l-.032.01-14.43,3.452h0a2.684,2.684,0,0,1-.567.066,2.438,2.438,0,0,1-2.362-1.866,2.562,2.562,0,0,1-.066-.567,2.436,2.436,0,0,1,1.866-2.362l7.161-1.712a1.513,1.513,0,0,0,.379-.142,4.623,4.623,0,0,0,1.445-1.11,2.737,2.737,0,0,0,.653-1.731,2.766,2.766,0,0,0-.4-1.408,4.354,4.354,0,0,0-1.147-1.232,7.6,7.6,0,0,0-1.171-.721l0,0c-.289-.142-3.477-1.741-3.758-1.883l-19.037-9.553a1.921,1.921,0,0,1-1.064-1.729,1.888,1.888,0,0,1,.205-.863,1.931,1.931,0,0,1,2.592-.858l13.7,6.875a1.49,1.49,0,0,0,.308.115l.059.012a2.313,2.313,0,0,0,.254.042l.078,0a1.553,1.553,0,0,0,.24-.01,1.828,1.828,0,0,0,.223-.049c.027-.007.056-.01.083-.02h0a1.716,1.716,0,0,0,.548-.308.133.133,0,0,1,.015-.02,1.618,1.618,0,0,0,.382-.489,1.7,1.7,0,0,0,.117-.306c0-.024,0-.049.01-.073a1.406,1.406,0,0,0,.042-.242c0-.029,0-.056,0-.083a1.492,1.492,0,0,0-.01-.235,1.254,1.254,0,0,0-.029-.132,1.055,1.055,0,0,0-.039-.174v0a1.662,1.662,0,0,0-.31-.545s-.01-.007-.015-.015a1.609,1.609,0,0,0-.492-.379.812.812,0,0,1-.367-.374,1.456,1.456,0,0,1-.149-.665,1.2,1.2,0,0,1,.086-.474,3.579,3.579,0,0,1,.787-1.1.788.788,0,0,1,.553-.24,1.11,1.11,0,0,1,.286.042,1.63,1.63,0,0,0,1.914-2.232,2.021,2.021,0,0,1-.171-.8,1.842,1.842,0,0,1,.2-.836,1.935,1.935,0,0,1,2.594-.856l.5.249a1.631,1.631,0,0,0,2.242-2.069,1.974,1.974,0,0,1-.147-.743,1.834,1.834,0,0,1,.2-.834,1.928,1.928,0,0,1,2.589-.858l15.225,7.638a11.858,11.858,0,0,1,5.286,15.924Z" transform="translate(-122.652 -90.19)" fill="#fff"/>
  </g>
</svg>
