<svg xmlns="http://www.w3.org/2000/svg" width="25.02" height="35" viewBox="0 0 25.02 35">
  <g id="アンケートシートアイコン" transform="translate(-60.822)">
    <path id="パス_16" data-name="パス 16" d="M82.887,56.585H80.282v1.783a3.252,3.252,0,0,1-.062.626h2.946a.614.614,0,0,1,.591.635V84.186a.614.614,0,0,1-.591.635H63.5a.614.614,0,0,1-.591-.635V59.63a.614.614,0,0,1,.591-.635h2.946a3.25,3.25,0,0,1-.062-.626V56.585H63.777a3.071,3.071,0,0,0-2.955,3.176V84.782a3.071,3.071,0,0,0,2.955,3.176h19.11a3.071,3.071,0,0,0,2.955-3.176V59.761A3.071,3.071,0,0,0,82.887,56.585Z" transform="translate(0 -52.958)" fill="#4b4b4b"/>
    <path id="パス_17" data-name="パス 17" d="M165.608,7.059h8.269a1.773,1.773,0,0,0,1.773-1.773V3.51a1.773,1.773,0,0,0-1.773-1.773h-2.241a1.9,1.9,0,0,0-3.788,0h-2.24a1.773,1.773,0,0,0-1.773,1.773V5.286A1.773,1.773,0,0,0,165.608,7.059Zm4.134-6.016a.869.869,0,1,1-.869.868A.869.869,0,0,1,169.742,1.043Z" transform="translate(-96.41)" fill="#4b4b4b"/>
    <path id="パス_18" data-name="パス 18" d="M143.787,162.318l.762-.761,2.094-2.094-.761-.761-2.094,2.094-1.332-1.333-.762.761Z" transform="translate(-75.688 -147.768)" fill="#4b4b4b"/>
    <path id="パス_19" data-name="パス 19" d="M145.881,244.091l-2.094,2.094-1.332-1.333-.762.762,2.094,2.094.762-.762,2.094-2.094Z" transform="translate(-75.688 -227.276)" fill="#4b4b4b"/>
    <path id="パス_20" data-name="パス 20" d="M142.455,330.242l-.762.762,2.094,2.094.762-.762,2.094-2.094-.761-.761-2.094,2.094Z" transform="translate(-75.688 -306.784)" fill="#4b4b4b"/>
  </g>
</svg>
