<svg xmlns="http://www.w3.org/2000/svg" width="32.473" height="34.002" viewBox="0 0 32.473 34.002">
  <g id="円を積み上げたお金アイコン" transform="translate(-11.516)">
    <path id="パス_21" data-name="パス 21" d="M20.34,0c-4.874,0-8.824,1.924-8.824,4.3v2.3c0,2.374,3.95,4.3,8.824,4.3s8.823-1.924,8.823-4.3V4.3C29.164,1.924,25.212,0,20.34,0Zm0,1.785c4.3,0,7.037,1.65,7.037,2.513S24.636,6.811,20.34,6.811,13.3,5.161,13.3,4.3,16.042,1.785,20.34,1.785Z" transform="translate(0)" fill="#4b4b4b"/>
    <path id="パス_22" data-name="パス 22" d="M20.339,165.415a16.41,16.41,0,0,0,4.472-.594,12.447,12.447,0,0,0-3.025,4.022c-.469.038-.953.06-1.448.06-4.872,0-8.823-1.927-8.823-4.3v-2.7a.088.088,0,0,1,.077-.087.054.054,0,0,1,.059.027c-.01,0,0,.031.06.178C12.566,163.962,16.1,165.415,20.339,165.415Z" transform="translate(0 -151.07)" fill="#4b4b4b"/>
    <path id="パス_23" data-name="パス 23" d="M20.583,270.513a11.5,11.5,0,0,0,.1,1.557c-.113.006-.228.006-.347.006-4.872,0-8.823-1.922-8.823-4.294v-2.705a.088.088,0,0,1,.077-.082.077.077,0,0,1,.075.042c-.021-.027-.043-.042.045.166.854,1.936,4.391,3.391,8.627,3.391.131,0,.267,0,.4-.012A11.883,11.883,0,0,0,20.583,270.513Z" transform="translate(0 -247.395)" fill="#4b4b4b"/>
    <path id="パス_24" data-name="パス 24" d="M23.582,374.95a16.881,16.881,0,0,1-3.243.3c-4.872,0-8.823-1.921-8.823-4.3v-2.7a.082.082,0,0,1,.077-.081.065.065,0,0,1,.076.044c-.022-.027-.049-.054.044.158.854,1.942,4.391,3.4,8.627,3.4.418,0,.837-.017,1.24-.044A12.356,12.356,0,0,0,23.582,374.95Z" transform="translate(0 -343.718)" fill="#4b4b4b"/>
    <path id="パス_25" data-name="パス 25" d="M292.066,291.464h-2.349l-.251.391v.94h2.6v1.334h-2.6v2.015H287.85V294.13h-2.6V292.8h2.6v-.938l-.252-.393H285.25v-1.14h1.615l-1.373-2.135h1.369l1.8,2.8,1.8-2.8h1.37l-1.373,2.135h1.615Z" transform="translate(-255.555 -269.049)" fill="#4b4b4b"/>
    <path id="パス_26" data-name="パス 26" d="M183.556,186.909a8.164,8.164,0,1,1-8.163,8.164,8.174,8.174,0,0,1,8.163-8.164m0-2.721a10.885,10.885,0,1,0,10.886,10.885A10.884,10.884,0,0,0,183.556,184.188Z" transform="translate(-150.454 -171.956)" fill="#4b4b4b"/>
  </g>
</svg>
