<svg id="ノートパソコンのアイコン素材5" xmlns="http://www.w3.org/2000/svg" width="39.927" height="32.562" viewBox="0 0 39.927 32.562">
  <path id="パス_36" data-name="パス 36" d="M49.956,68.678h25.46a3.622,3.622,0,0,0,3.621-3.62V50.839a3.621,3.621,0,0,0-3.621-3.62H49.956a3.62,3.62,0,0,0-3.62,3.62V65.058A3.621,3.621,0,0,0,49.956,68.678ZM48.89,50.839a1.067,1.067,0,0,1,1.066-1.066h25.46a1.067,1.067,0,0,1,1.065,1.066V64.658a1.066,1.066,0,0,1-1.065,1.066H49.956a1.067,1.067,0,0,1-1.066-1.066Z" transform="translate(-42.722 -47.219)" fill="#4b4b4b"/>
  <path id="パス_37" data-name="パス 37" d="M39.542,353.338,36.23,348.69a1.5,1.5,0,0,0-1.259-.642H4.949a1.494,1.494,0,0,0-1.256.642L.38,353.338a2.282,2.282,0,0,0,.01,2.543,2.99,2.99,0,0,0,2.505,1.27H37.027a2.988,2.988,0,0,0,2.505-1.27A2.282,2.282,0,0,0,39.542,353.338Zm-18.761,1.34H15.547l1.243-1.912h6.343l1.24,1.912Z" transform="translate(0.002 -324.589)" fill="#4b4b4b"/>
</svg>
