<svg xmlns="http://www.w3.org/2000/svg" width="35.207" height="34.601" viewBox="0 0 35.207 34.601">
  <g id="ナイフ_お皿_フォークのお食事アイコン2" data-name="ナイフ、お皿、フォークのお食事アイコン2" transform="translate(0 -4.406)">
    <path id="パス_27" data-name="パス 27" d="M161.358,245.3c.126-1.066.095-1.819-1.422-3.322l-2.718-2.719a.847.847,0,1,0-1.207,1.188l2.847,2.847a.466.466,0,0,1,0,.659l-.088.088a.464.464,0,0,1-.659,0l-2.86-2.86a.875.875,0,0,0-1.238,1.237l2.861,2.86a.466.466,0,0,1,0,.659l-.088.088a.464.464,0,0,1-.659,0l-2.847-2.847a.847.847,0,1,0-1.188,1.207l2.718,2.719c1.5,1.515,2.257,1.546,3.324,1.42a2.3,2.3,0,0,1,2.426.648l8.281,8.28,1.443-1.443-8.281-8.28A2.3,2.3,0,0,1,161.358,245.3Z" transform="translate(-141.375 -218.441)" fill="#4b4b4b"/>
    <path id="パス_28" data-name="パス 28" d="M277.173,183.248c-2.9-2.9-5.86-5.86-6.369-6.37-1.049-1.048-2.751.131-1.834,1.834a36.524,36.524,0,0,0,3.4,5.893c1.572,1.964,3.077,1.637,4.65,2.03l1.143.493,5.827,5.827,1.435-1.435.008-.007C285.2,191.27,280.109,186.182,277.173,183.248Z" transform="translate(-250.23 -160.243)" fill="#4b4b4b"/>
    <path id="パス_29" data-name="パス 29" d="M106.987,104.078a7.269,7.269,0,0,1,3.669.993l.6-1.025a8.494,8.494,0,0,0-11.615,11.615l1.026-.6a7.31,7.31,0,0,1,6.322-10.985Z" transform="translate(-91.712 -91.713)" fill="#4b4b4b"/>
    <path id="パス_30" data-name="パス 30" d="M15.275,32.881A13.2,13.2,0,1,1,28.16,22.545l1.7,1.7a15.277,15.277,0,1,0-9.125,9.707L19.1,32.317A13.206,13.206,0,0,1,15.275,32.881Z" transform="translate(0 0)" fill="#4b4b4b"/>
    <path id="パス_31" data-name="パス 31" d="M342.439,340.273l-.538-.539-.841-.363c-.151-.036-.305-.062-.462-.088a13.018,13.018,0,0,1-2.723,2.776l1.479,1.478A15.346,15.346,0,0,0,342.439,340.273Z" transform="translate(-314.641 -311.848)" fill="#4b4b4b"/>
  </g>
</svg>
