<svg xmlns="http://www.w3.org/2000/svg" width="221" height="80" viewBox="0 0 221 80">
  <g id="グループ_2" data-name="グループ 2" transform="translate(-1260.938 -849.226)">
    <text id="me_and_chef" data-name="me and chef" transform="translate(1348.938 906.002)" fill="#e481b0" font-size="27" font-family="PShueiNMGoStdN-B, A P-OTF Shuei NijimiMGo StdN" letter-spacing="-0.069em"><tspan x="0" y="0">me and chef</tspan></text>
    <path id="パス_1" data-name="パス 1" d="M1428.436,872.905a12.021,12.021,0,0,0-.669-2.774,11.335,11.335,0,0,0-.5-1.136,11.512,11.512,0,0,0-1.974-2.774,13.441,13.441,0,0,0-7.384-4.287,19.418,19.418,0,0,0-5.855-.772,21.576,21.576,0,0,0-6.983,1.1.634.634,0,0,0-.45.691,11.559,11.559,0,0,1-2.4,8.325,14.218,14.218,0,0,1-10.821,6.021.671.671,0,0,1-.731-.642h0a.652.652,0,0,1,.626-.642,12.862,12.862,0,0,0,9.806-5.464,10.255,10.255,0,0,0,2.117-7.715c-.005-.024-.011-.047-.018-.07A18.59,18.59,0,0,0,1395,852.21a23.438,23.438,0,0,0-12.6-3.5c-.216,0-.43.01-.644.017h-.047c-.215-.007-.429-.016-.645-.017a23.439,23.439,0,0,0-12.6,3.5,18.7,18.7,0,0,0-8.059,10.046l-.907.4a21.842,21.842,0,0,0-8.092-1.491,19.419,19.419,0,0,0-5.855.772,13.442,13.442,0,0,0-7.384,4.287A11.511,11.511,0,0,0,1336.2,869a11.364,11.364,0,0,0-.5,1.136,12.027,12.027,0,0,0-.669,2.774,13.664,13.664,0,0,0-.089,2.029c0,.076.005.152.009.229.017.389.05.757.091,1.1a13.751,13.751,0,0,0,.5,2.4c.037.119.065.2.075.226,2.106,5.765,8.653,9.978,15.564,10.557h.381v36.43c0,1.556,1.806,2.829,4.013,2.829H1391.5a.662.662,0,0,0,.679-.643V902.495a.662.662,0,0,1,.678-.643h13.7a.662.662,0,0,1,.678.643v26.211h.651c2.207,0,4.013-1.273,4.013-2.829v-36.43h.381c6.911-.579,13.458-4.792,15.564-10.557.011-.03.038-.107.075-.226a13.763,13.763,0,0,0,.5-2.4c.041-.343.074-.711.091-1.1,0-.076.007-.152.009-.229A13.6,13.6,0,0,0,1428.436,872.905Zm-60.813,41.036h-12.4V901.851h12.4Zm15.522,0h-12.4V901.851h12.4Z" transform="translate(-74 0.52)" fill="#e481b0"/>
  </g>
</svg>
