<svg id="twitterのアイコン素材_その2_1_" data-name="twitterのアイコン素材 その2 (1)" xmlns="http://www.w3.org/2000/svg" width="63.04" height="63.04" viewBox="0 0 63.04 63.04">
  <path id="パス_38" data-name="パス 38" d="M31.52,0A31.52,31.52,0,1,0,63.04,31.52,31.52,31.52,0,0,0,31.52,0Zm.607,26.766.031,0a6.315,6.315,0,0,1,10.755-5.756,12.615,12.615,0,0,0,3.34-1.173c.219-.106.439-.212.655-.329a6.3,6.3,0,0,1-1.987,2.9,5.775,5.775,0,0,1-.779.535l.056-.009c-.018.011-.034.027-.053.038a12.632,12.632,0,0,0,2.969-.732c.211-.073.422-.147.631-.228a12.838,12.838,0,0,1-3.124,3.233q.018.406.018.816c0,8.34-6.348,17.957-17.957,17.957a17.864,17.864,0,0,1-9.675-2.835,12.852,12.852,0,0,0,1.506.088,12.645,12.645,0,0,0,6.45-1.766A13.415,13.415,0,0,0,26.35,38.6l-.035,0,.036-.026a6.221,6.221,0,0,1-5.878-4.381,5.958,5.958,0,0,0,2.385-.02c.147-.021.3-.038.442-.062-.019,0-.036-.012-.055-.016.02-.005.041-.007.061-.012a6.315,6.315,0,0,1-5.063-6.188c0-.024,0-.048,0-.071l0-.007a6.285,6.285,0,0,0,2.245.731c.2.033.4.064.595.081-.014-.009-.025-.02-.039-.029.019,0,.037,0,.055.005a6.282,6.282,0,0,1-2.147-8.039c.066-.127.125-.256.2-.378A17.92,17.92,0,0,0,30.582,26.6c.512.074,1.026.141,1.546.171C32.127,26.772,32.127,26.769,32.126,26.766Z" fill="#1da1f2"/>
</svg>
